# xmcd
#
# Track frame offsets:
#	150
#	21350
#	38792
#	57442
#	77247
#	96654
#	111902
#	134392
#	148710
#	152920
#	170190
#	191450
#	209815
#
# Disc length: 3054 seconds
#
# Revision: 4
# Processed by: cddbd v1.5.2PL0 Copyright (c) Steve Scherf et al.
# Submitted via: EasyCDDAExtractor 16.0.6.1
#
DISCID=cb0bec0d
DTITLE=조관우 - JO KWANWOO#6
DYEAR=2001
DGENRE=Ballad
TTITLE0=연
TTITLE1=위로
TTITLE2=괜찮아요
TTITLE3=사랑했으므로
TTITLE4=못
TTITLE5=예감
TTITLE6=섬
TTITLE7=무명
TTITLE8=!!!
TTITLE9=가을편지
TTITLE10=아름다운 고백
TTITLE11=지우기
TTITLE12=이별의 서정
EXTD=YEAR: 2001
EXTT0=
EXTT1=
EXTT2=
EXTT3=
EXTT4=
EXTT5=
EXTT6=
EXTT7=
EXTT8=
EXTT9=
EXTT10=
EXTT11=
EXTT12=
PLAYORDER=
